<svg width="24" height="24" viewBox="0 0 24 24" fill="none" xmlns="http://www.w3.org/2000/svg">
<g opacity="0.998">
<path opacity="0.998" d="M7.73241e-06 11.9989C-0.00161125 13.4236 0.251015 14.8371 0.746008 16.1729H23.253C24.2481 13.4796 24.2481 10.5193 23.253 7.82593H0.746008C0.251133 9.16149 -0.00149227 10.5746 7.73241e-06 11.9989Z" fill="#FFD600"/>
<path opacity="0.998" d="M23.2521 7.82592C22.4008 5.5274 20.8661 3.5447 18.8543 2.14447C16.8425 0.744242 14.4502 -0.00634766 11.9991 -0.00634766C9.548 -0.00634766 7.15568 0.744242 5.14391 2.14447C3.13213 3.5447 1.59739 5.5274 0.746094 7.82592H23.2521Z" fill="#C80000"/>
<path opacity="0.998" d="M0.746094 16.1729C1.59739 18.4714 3.13213 20.4541 5.14391 21.8543C7.15568 23.2545 9.548 24.0051 11.9991 24.0051C14.4502 24.0051 16.8425 23.2545 18.8543 21.8543C20.8661 20.4541 22.4008 18.4714 23.2521 16.1729H0.746094Z" fill="#C80000"/>
</g>
</svg>
