<svg width="24" height="27" viewBox="0 0 24 27" fill="none" xmlns="http://www.w3.org/2000/svg">
<g clip-path="url(#clip0_1700_126)">
<path d="M12 26.0272C18.6274 26.0272 24 20.301 24 13.2375C24 6.17391 18.6274 0.447754 12 0.447754C5.37258 0.447754 0 6.17391 0 13.2375C0 20.301 5.37258 26.0272 12 26.0272Z" fill="white"/>
<path d="M23.999 13.0744C23.9912 10.4377 23.2091 7.86983 21.7625 5.73093C20.316 3.59203 18.2775 1.98943 15.933 1.14795V25.3418C18.3179 24.4623 20.3816 22.803 21.8299 20.6003C23.2782 18.3975 24.0373 15.7638 23.999 13.0744Z" fill="#C80000"/>
<path d="M-1.71411e-05 13.1362C-0.0310209 15.7571 0.698411 18.3243 2.08851 20.4866C3.47861 22.6489 5.4615 24.3007 7.76598 25.2161V1.25879C5.46999 2.1264 3.48645 3.73835 2.09366 5.86849C0.700882 7.99862 -0.0312522 10.54 -1.71411e-05 13.1362Z" fill="#3243C6"/>
</g>
<defs>
<clipPath id="clip0_1700_126">
<rect width="24" height="25.5794" fill="white" transform="translate(0 0.447754)"/>
</clipPath>
</defs>
</svg>
