<svg width="24" height="24" viewBox="0 0 24 24" fill="none" xmlns="http://www.w3.org/2000/svg">
<path d="M12 0C14.3734 0 16.6935 0.703788 18.6668 2.02236C20.6402 3.34094 22.1783 5.21509 23.0866 7.4078C23.9948 9.60051 24.2324 12.0133 23.7694 14.3411C23.3064 16.6689 22.1635 18.8071 20.4853 20.4853C18.8071 22.1635 16.6689 23.3064 14.3411 23.7694C12.0133 24.2324 9.60051 23.9948 7.4078 23.0866C5.21509 22.1783 3.34094 20.6402 2.02236 18.6668C0.703788 16.6935 0 14.3734 0 12C0 8.8174 1.26428 5.76515 3.51472 3.51472C5.76515 1.26428 8.8174 0 12 0V0Z" fill="white"/>
<path d="M2.48106 4.69409C1.52497 5.93676 0.822643 7.35536 0.414062 8.86909H6.65706L2.48106 4.69409Z" fill="#3243C6"/>
<path d="M23.5882 8.86909C23.1796 7.35537 22.4772 5.93678 21.5212 4.69409L17.3462 8.86909H23.5882Z" fill="#3243C6"/>
<path d="M0.414062 15.1301C0.822667 16.6439 1.52499 18.0625 2.48106 19.3051L6.65606 15.1301H0.414062Z" fill="#3243C6"/>
<path d="M19.3061 2.48009C18.0634 1.52402 16.6448 0.821691 15.1311 0.413086V6.65609L19.3061 2.48009Z" fill="#3243C6"/>
<path d="M4.69507 21.519C5.93775 22.4751 7.35634 23.1774 8.87007 23.586V17.343L4.69507 21.519Z" fill="#3243C6"/>
<path d="M8.87007 0.413086C7.35634 0.821691 5.93775 1.52402 4.69507 2.48009L8.87007 6.65509V0.413086Z" fill="#3243C6"/>
<path d="M15.1311 23.5872C16.6448 23.1786 18.0634 22.4763 19.3061 21.5202L15.1311 17.3452V23.5872Z" fill="#3243C6"/>
<path d="M17.345 15.1301L21.52 19.3051C22.476 18.0625 23.1784 16.6439 23.587 15.1301H17.345Z" fill="#3243C6"/>
<path d="M23.9001 10.4351H13.5651V0.100085C12.5261 -0.0353148 11.474 -0.0353148 10.4351 0.100085V10.4351H0.100085C-0.0353148 11.474 -0.0353148 12.5261 0.100085 13.5651H10.4351V23.9001C11.474 24.0355 12.5261 24.0355 13.5651 23.9001V13.5651H23.9001C24.0355 12.5261 24.0355 11.474 23.9001 10.4351Z" fill="#C80000"/>
<path d="M15.1311 15.1311L20.4861 20.4861C20.7321 20.2401 20.9671 19.9835 21.1911 19.7161L16.6071 15.1311H15.1311Z" fill="#C80000"/>
<path d="M8.87013 15.1301L3.51514 20.4851C3.76114 20.7311 4.0178 20.9661 4.28513 21.1901L8.86913 16.6051L8.87013 15.1301Z" fill="#C80000"/>
<path d="M8.86908 8.87013L3.51408 3.51514C3.26808 3.76114 3.03308 4.0178 2.80908 4.28513L7.39408 8.87013H8.87009H8.86908Z" fill="#C80000"/>
<path d="M15.1311 8.86909L20.4861 3.51408C20.2401 3.26808 19.9835 3.03308 19.7161 2.80908L15.1311 7.39408V8.86909Z" fill="#C80000"/>
</svg>
