<svg width="24" height="24" viewBox="0 0 24 24" fill="none" xmlns="http://www.w3.org/2000/svg">
<path d="M12.001 24C18.6284 24 24.001 18.6274 24.001 12C24.001 5.37258 18.6284 0 12.001 0C5.37356 0 0.000976562 5.37258 0.000976562 12C0.000976562 18.6274 5.37356 24 12.001 24Z" fill="white"/>
<path d="M24.0001 11.847C23.9923 9.37314 23.2102 6.96381 21.7636 4.95698C20.3171 2.95015 18.2786 1.44651 15.9341 0.656982V23.357C18.319 22.5318 20.3827 20.9749 21.831 18.9082C23.2793 16.8415 24.0384 14.3704 24.0001 11.847Z" fill="#C80000"/>
<path d="M0.000959421 11.905C-0.0300443 14.3641 0.699387 16.7728 2.08949 18.8015C3.47959 20.8303 5.46248 22.3801 7.76696 23.239V0.760986C5.47096 1.57503 3.48742 3.08745 2.09464 5.08605C0.701859 7.08466 -0.0302756 9.46915 0.000959421 11.905Z" fill="#3243C6"/>
</svg>
