<svg width="116" height="50" viewBox="0 0 116 50" fill="none" xmlns="http://www.w3.org/2000/svg">
<g clip-path="url(#clip0_315_7319)">
<path d="M56.2065 0V7.27207C56.2065 9.18051 55.6953 10.6051 54.6734 11.5464C53.6514 12.4877 52.1116 12.9581 50.0548 12.9581C47.998 12.9581 46.4582 12.4877 45.4362 11.5464C44.4143 10.6056 43.9031 9.18051 43.9031 7.27207V0H48.4158V7.61997C48.4158 8.26476 48.5571 8.75148 48.8402 9.08015C49.1229 9.40882 49.5278 9.57315 50.0552 9.57315C50.5827 9.57315 51.0063 9.40882 51.2894 9.08015C51.5721 8.75148 51.7138 8.26476 51.7138 7.61997V0H56.2073H56.2065Z" fill="white"/>
<path d="M69.8212 0V12.7645H64.9616L61.9146 6.96263L61.2203 5.39624H61.182L61.2591 8.02641V12.7649H57.3635V0H62.2231L65.2702 5.8215L65.9644 7.36866H66.0032L65.9261 4.73849V0H69.8216H69.8212Z" fill="white"/>
<path d="M18.6131 27.2769H14.0233L13.4446 24.8399H10.0118L9.41391 27.2769H4.94043L9.06742 14.5125H14.467L18.6131 27.2769ZM10.6873 22.0358H12.7891L11.7476 17.6068L10.6869 22.0358H10.6873Z" fill="white"/>
<path d="M30.666 14.5125V21.7845C30.666 23.693 30.1548 25.1176 29.1328 26.0589C28.1109 27.0001 26.5711 27.4705 24.5143 27.4705C22.4574 27.4705 20.9176 27.0001 19.8957 26.0589C18.8737 25.118 18.3625 23.693 18.3625 21.7845V14.5125H22.8752V22.1324C22.8752 22.7772 23.0166 23.2639 23.2997 23.5926C23.5824 23.9213 23.9872 24.0856 24.5147 24.0856C25.0421 24.0856 25.4662 23.9213 25.7489 23.5926C26.0315 23.2639 26.1733 22.7772 26.1733 22.1324V14.5125H30.6668H30.666Z" fill="white"/>
<path d="M44.4889 14.5125V17.8196H40.5162V27.2769H36.0227V17.8196H32.0308V14.5125H44.4889Z" fill="white"/>
<path d="M58.5787 27.2768L55.4624 22.3764C55.8811 22.2125 56.2488 22.0026 56.5636 21.7455C57.4313 21.0367 57.8653 19.9792 57.8653 18.5738C57.8653 17.349 57.4217 16.3659 56.5348 15.6246C55.6476 14.8832 54.375 14.5127 52.7164 14.5127H45.8125V27.2772H50.2093V23.0417H51.4493L53.7 27.2772H58.5792L58.5787 27.2768ZM50.2093 17.7228H51.945C52.4204 17.7228 52.7773 17.8132 53.0153 17.9938C53.253 18.1744 53.3723 18.4772 53.3723 18.9029C53.3723 19.3285 53.2534 19.6476 53.0153 19.8215C52.7773 19.9955 52.4204 20.0825 51.945 20.0825H50.2093V17.7228Z" fill="white"/>
<path d="M59.2151 27.2769V14.5125H69.8211V17.8196H63.7082V19.4057H68.6065V22.4615H63.7082V23.9702H69.8211V27.2774H59.2151V27.2769Z" fill="white"/>
<path d="M16.3533 29.0251V41.7896H12.4385V37.3606L12.4965 33.067H12.4385L9.97016 41.7892H6.38312L3.95312 33.067H3.87599L3.93394 37.3606V41.7896H0V29.0251H6.2868L7.75239 34.6919L8.31152 37.0708H8.34988L8.90901 34.6919L10.3746 29.0251H16.3529H16.3533Z" fill="white"/>
<path d="M24.1982 28.8315C25.5483 28.8315 26.7053 29.0895 27.6693 29.6051C28.6337 30.1211 29.3726 30.8688 29.8871 31.8485C30.4012 32.8287 30.6584 34.0145 30.6584 35.407C30.6584 36.7994 30.4012 37.9857 29.8871 38.9654C29.3726 39.9456 28.6337 40.6932 27.6693 41.2088C26.7049 41.7248 25.5479 41.9824 24.1982 41.9824C22.8485 41.9824 21.7073 41.7248 20.7366 41.2088C19.766 40.6932 19.0205 39.9452 18.4997 38.9654C17.9789 37.9857 17.7188 36.7994 17.7188 35.407C17.7188 34.0145 17.9789 32.8282 18.4997 31.8485C19.0205 30.8688 19.766 30.1207 20.7366 29.6051C21.7073 29.0895 22.861 28.8315 24.1982 28.8315ZM24.1982 32.2161C23.7608 32.2161 23.4043 32.329 23.1279 32.5543C22.8514 32.7801 22.6459 33.1247 22.5108 33.5888C22.3757 34.053 22.3081 34.6593 22.3081 35.407C22.3081 36.1546 22.3757 36.7446 22.5108 37.2151C22.6459 37.6859 22.8514 38.0338 23.1279 38.2596C23.4043 38.4854 23.7608 38.5979 24.1982 38.5979C24.6356 38.5979 24.9921 38.485 25.2685 38.2596C25.5449 38.0342 25.7472 37.6859 25.876 37.2151C26.0044 36.7446 26.069 36.1417 26.069 35.407C26.069 34.6723 26.0044 34.053 25.876 33.5888C25.7472 33.1247 25.5449 32.7797 25.2685 32.5543C24.9921 32.329 24.6352 32.2161 24.1982 32.2161Z" fill="white"/>
<path d="M44.4821 29.0251V41.7896H39.6225L36.5754 35.9878L35.8812 34.4214H35.8429L35.92 37.0516V41.79H32.0244V29.0256H36.884L39.9311 34.8471L40.6253 36.3942H40.6641L40.5869 33.7641V29.0256H44.4825L44.4821 29.0251Z" fill="white"/>
<path d="M52.0607 29.0251C54.0533 29.0251 55.5577 29.5796 56.5734 30.6886C57.5886 31.7975 58.0969 33.3706 58.0969 35.4074C58.0969 37.4442 57.5891 39.0018 56.5734 40.1166C55.5577 41.2318 54.0533 41.7896 52.0607 41.7896H45.8123V29.0251H52.0607ZM51.4244 38.5791C52.26 38.5791 52.8158 38.3248 53.0927 37.8151C53.3691 37.3058 53.5071 36.5034 53.5071 35.4074C53.5071 34.3114 53.3687 33.509 53.0927 32.9997C52.8162 32.4904 52.26 32.2357 51.4244 32.2357H50.3057V38.5791H51.4244Z" fill="white"/>
<path d="M59.2151 41.7896V29.0251H69.8211V32.3323H63.7082V33.9184H68.6065V36.9742H63.7082V38.4829H69.8211V41.79H59.2151V41.7896Z" fill="white"/>
<path d="M2.48879 48.8243L2.16231 47.7204H0.807636L0.481163 48.8243H0L1.18373 44.9526H1.79748L2.98121 48.8243H2.48879ZM1.50978 45.4461H1.46017L0.918128 47.3152H2.05182L1.50978 45.4461Z" fill="white"/>
<path d="M6.25011 49.1541C6.25011 49.4414 6.13044 49.6542 5.8907 49.7926C5.65095 49.9306 5.29154 50 4.81204 50C4.33255 50 4.02025 49.939 3.81928 49.8169C3.61831 49.6948 3.51782 49.5191 3.51782 49.29C3.51782 49.1348 3.55827 49.0144 3.63957 48.9295C3.72046 48.8442 3.83512 48.7815 3.98231 48.741V48.6745C3.901 48.6339 3.83846 48.5821 3.79426 48.5193C3.75006 48.4566 3.72797 48.3772 3.72797 48.281C3.72797 48.133 3.77675 48.0222 3.87473 47.9481C3.9723 47.8741 4.09488 47.8189 4.24248 47.7817V47.7596C4.0657 47.6818 3.9281 47.5672 3.83054 47.4158C3.73297 47.264 3.68377 47.0867 3.68377 46.8835C3.68377 46.7393 3.70962 46.6063 3.76132 46.4842C3.81302 46.3621 3.88766 46.2576 3.98523 46.171C4.08279 46.084 4.19996 46.0167 4.3363 45.9686C4.47264 45.9205 4.624 45.8967 4.78994 45.8967C5.00384 45.8967 5.19188 45.9356 5.35408 46.0134V45.9636C5.35408 45.854 5.37993 45.7625 5.43163 45.6897C5.48333 45.6169 5.57173 45.5806 5.69723 45.5806H6.22259V45.9632H5.5809V46.1572C5.68389 46.2458 5.76353 46.3512 5.81856 46.4733C5.87402 46.5954 5.90154 46.7322 5.90154 46.8839C5.90154 47.0357 5.87485 47.1612 5.82148 47.2833C5.76811 47.4054 5.69348 47.5099 5.59758 47.5965C5.50168 47.6834 5.38452 47.7508 5.24651 47.7989C5.10808 47.8469 4.95631 47.8708 4.79036 47.8708C4.74241 47.8708 4.69613 47.8691 4.65193 47.8653C4.60773 47.8616 4.56354 47.8561 4.51934 47.8486C4.47514 47.8561 4.42886 47.8683 4.38091 47.885C4.33296 47.9017 4.28877 47.9243 4.24832 47.9523C4.20788 47.9803 4.17452 48.0129 4.14867 48.0506C4.12282 48.0882 4.10989 48.1309 4.10989 48.1794C4.10989 48.2655 4.15242 48.3224 4.23706 48.3504C4.32171 48.3784 4.43262 48.3926 4.56896 48.3926H5.19939C5.56798 48.3926 5.83566 48.4616 6.00119 48.6C6.16714 48.7384 6.25011 48.9233 6.25011 49.1558V49.1541ZM5.83524 49.1733C5.83524 49.0587 5.78896 48.9672 5.69681 48.8986C5.60467 48.83 5.44414 48.7961 5.21565 48.7961H4.22539C4.03359 48.8739 3.93769 49.0031 3.93769 49.1846C3.93769 49.3105 3.98731 49.4184 4.08696 49.5091C4.18661 49.5998 4.35256 49.645 4.5848 49.645H5.01635C5.27444 49.645 5.47541 49.6053 5.61926 49.5258C5.76311 49.4464 5.83483 49.3289 5.83483 49.1737L5.83524 49.1733ZM4.78994 47.5258C5.01134 47.5258 5.17437 47.474 5.27944 47.3707C5.38452 47.2674 5.43705 47.1302 5.43705 46.96V46.7991C5.43705 46.6289 5.38452 46.493 5.27944 46.3914C5.17437 46.2897 5.01134 46.2387 4.78994 46.2387C4.56854 46.2387 4.40635 46.2897 4.30336 46.3914C4.19996 46.493 4.14867 46.6289 4.14867 46.7991V46.96C4.14867 47.1302 4.20037 47.267 4.30336 47.3707C4.40635 47.4744 4.56896 47.5258 4.78994 47.5258Z" fill="white"/>
<path d="M8.17484 48.8907C7.96845 48.8907 7.78291 48.8555 7.61904 48.7853C7.45477 48.715 7.31467 48.6143 7.19876 48.483C7.08243 48.3517 6.9932 48.1944 6.93066 48.0113C6.86811 47.8281 6.83643 47.6241 6.83643 47.3983C6.83643 47.1725 6.86853 46.9621 6.93316 46.7769C6.99779 46.5921 7.08701 46.434 7.20126 46.3027C7.3155 46.1714 7.4531 46.0706 7.61321 46.0004C7.77373 45.9301 7.95136 45.895 8.14691 45.895C8.34246 45.895 8.51299 45.9301 8.66976 46.0004C8.82654 46.0706 8.95996 46.1677 9.07087 46.2914C9.18136 46.4152 9.26642 46.5624 9.32521 46.7326C9.384 46.9028 9.41361 47.0897 9.41361 47.2929V47.5037H7.30091V47.6366C7.30091 47.7625 7.32092 47.8787 7.36178 47.9862C7.40223 48.0937 7.46019 48.1861 7.53607 48.2634C7.61154 48.3412 7.70369 48.4014 7.81251 48.4437C7.92133 48.4863 8.04225 48.5076 8.17484 48.5076C8.36664 48.5076 8.53259 48.4633 8.67268 48.3747C8.81278 48.286 8.91952 48.1639 8.99332 48.0084L9.31979 48.2304C9.23473 48.4227 9.0938 48.5808 8.89659 48.7046C8.69937 48.8284 8.45879 48.8902 8.17484 48.8902V48.8907ZM8.14732 46.2613C8.02557 46.2613 7.913 46.2835 7.81001 46.3278C7.7066 46.3721 7.61738 46.4332 7.54191 46.511C7.46644 46.5887 7.40723 46.6803 7.36512 46.7857C7.32259 46.8911 7.30133 47.0069 7.30133 47.1323V47.1712H8.9387V47.1102C8.9387 46.9843 8.91952 46.8697 8.88074 46.7665C8.84196 46.6632 8.78859 46.5733 8.72021 46.4976C8.65183 46.4219 8.56886 46.3638 8.47129 46.3228C8.37373 46.2822 8.26574 46.2617 8.14774 46.2617L8.14732 46.2613Z" fill="white"/>
<path d="M10.3262 48.8242V45.9619H10.7686V46.4277H10.7907C10.8203 46.3575 10.857 46.2902 10.9011 46.2254C10.9453 46.1605 10.9995 46.1041 11.0642 46.056C11.1288 46.0079 11.2051 45.969 11.2939 45.9393C11.3823 45.9097 11.4857 45.895 11.6037 45.895C11.9023 45.895 12.142 45.9904 12.323 46.1806C12.5035 46.3713 12.594 46.6402 12.594 46.9876V48.8238H12.1516V47.0654C12.1516 46.8028 12.0945 46.608 11.9802 46.4804C11.866 46.3529 11.6979 46.2889 11.477 46.2889C11.3886 46.2889 11.3018 46.3002 11.2172 46.3224C11.1321 46.3445 11.0567 46.378 10.9904 46.4223C10.9241 46.4666 10.8707 46.5239 10.8298 46.5942C10.7894 46.6644 10.769 46.746 10.769 46.8384V48.8242H10.3266H10.3262Z" fill="white"/>
<path d="M14.8618 48.8907C14.6554 48.8907 14.4719 48.8548 14.3114 48.7824C14.1509 48.7101 14.0154 48.6097 13.9049 48.4801C13.7944 48.3509 13.7102 48.1937 13.653 48.0084C13.5959 47.8236 13.5671 47.6183 13.5671 47.3929C13.5671 47.1675 13.5967 46.9622 13.6555 46.7774C13.7143 46.5926 13.7994 46.4345 13.9099 46.3032C14.0204 46.1719 14.155 46.0711 14.3135 46.0009C14.4719 45.9306 14.6529 45.8955 14.8555 45.8955C15.132 45.8955 15.3571 45.9566 15.5301 46.0787C15.7036 46.2008 15.8308 46.3597 15.9117 46.5558L15.5577 46.7444C15.506 46.5963 15.4201 46.4818 15.3004 46.4006C15.1807 46.3195 15.0323 46.2785 14.8551 46.2785C14.7258 46.2785 14.6108 46.2999 14.5094 46.3425C14.4081 46.3852 14.3222 46.445 14.2522 46.5227C14.1821 46.6005 14.1296 46.6929 14.0946 46.8C14.0596 46.9074 14.042 47.0237 14.042 47.1495V47.6375C14.042 47.7634 14.0596 47.8796 14.0946 47.9871C14.1296 48.0946 14.1821 48.187 14.2522 48.2643C14.3222 48.3421 14.409 48.4023 14.5124 48.4446C14.6154 48.4872 14.7338 48.5085 14.8664 48.5085C15.0582 48.5085 15.2166 48.4642 15.3421 48.3756C15.4676 48.2869 15.5668 48.1648 15.6406 48.0093L15.9559 48.2254C15.8708 48.4178 15.739 48.5767 15.5606 48.7026C15.3817 48.8284 15.1486 48.8911 14.8609 48.8911L14.8618 48.8907Z" fill="white"/>
<path d="M18.1307 48.8907C17.9243 48.8907 17.7387 48.8555 17.5749 48.7853C17.4106 48.715 17.2705 48.6143 17.1546 48.483C17.0382 48.3517 16.949 48.1944 16.8865 48.0113C16.8239 47.8281 16.7922 47.6241 16.7922 47.3983C16.7922 47.1725 16.8243 46.9621 16.889 46.7769C16.9536 46.5921 17.0428 46.434 17.1571 46.3027C17.2713 46.1714 17.4089 46.0706 17.569 46.0004C17.7295 45.9301 17.9072 45.895 18.1027 45.895C18.2983 45.895 18.4688 45.9301 18.6256 46.0004C18.7823 46.0706 18.9158 46.1677 19.0267 46.2914C19.1372 46.4152 19.2222 46.5624 19.281 46.7326C19.3398 46.9028 19.3694 47.0897 19.3694 47.2929V47.5037H17.2567V47.6366C17.2567 47.7625 17.2767 47.8787 17.3176 47.9862C17.358 48.0937 17.416 48.1861 17.4919 48.2634C17.5674 48.3412 17.6595 48.4014 17.7683 48.4437C17.8771 48.4863 17.9981 48.5076 18.1307 48.5076C18.3225 48.5076 18.4884 48.4633 18.6285 48.3747C18.7686 48.286 18.8753 48.1639 18.9491 48.0084L19.2756 48.2304C19.1905 48.4227 19.0496 48.5808 18.8524 48.7046C18.6552 48.8284 18.4146 48.8902 18.1307 48.8902V48.8907ZM18.1031 46.2613C17.9814 46.2613 17.8688 46.2835 17.7658 46.3278C17.6624 46.3721 17.5732 46.4332 17.4977 46.511C17.4223 46.5887 17.363 46.6803 17.3209 46.7857C17.2784 46.8911 17.2571 47.0069 17.2571 47.1323V47.1712H18.8945V47.1102C18.8945 46.9843 18.8753 46.8697 18.8366 46.7665C18.7978 46.6632 18.7444 46.5733 18.676 46.4976C18.6076 46.4219 18.5247 46.3638 18.4271 46.3228C18.3295 46.2822 18.2215 46.2617 18.1036 46.2617L18.1031 46.2613Z" fill="white"/>
<path d="M25.4095 48.3579H25.3874C25.2031 48.7129 24.91 48.8902 24.5081 48.8902C24.1578 48.8902 23.8839 48.7589 23.6867 48.4963C23.4894 48.2337 23.3906 47.8658 23.3906 47.3924C23.3906 46.9191 23.489 46.5511 23.6867 46.2885C23.8839 46.0259 24.1578 45.8946 24.5081 45.8946C24.91 45.8946 25.2031 46.0719 25.3874 46.4273H25.4095V44.7188H25.8519V48.8233H25.4095V48.3575V48.3579ZM24.6794 48.4967C24.7791 48.4967 24.8729 48.4838 24.9617 48.4579C25.0501 48.4319 25.1276 48.3939 25.1939 48.3441C25.2602 48.2944 25.3128 48.2333 25.3516 48.161C25.3903 48.0891 25.4095 48.005 25.4095 47.9084V46.8768C25.4095 46.7807 25.3903 46.6966 25.3516 46.6243C25.3128 46.5523 25.2602 46.4913 25.1939 46.4411C25.1276 46.3914 25.0501 46.3533 24.9617 46.3274C24.8733 46.3015 24.7791 46.2885 24.6794 46.2885C24.4213 46.2885 24.2212 46.3671 24.0794 46.5243C23.9372 46.6816 23.8664 46.8894 23.8664 47.1482V47.6362C23.8664 47.895 23.9372 48.1033 24.0794 48.2601C24.2212 48.4173 24.4213 48.4959 24.6794 48.4959V48.4967Z" fill="white"/>
<path d="M26.9634 48.4412H27.992V46.3445H26.9634V45.9619H28.4348V48.4416H29.3971V48.8242H26.9634V48.4416V48.4412ZM28.2134 45.3293C28.0841 45.3293 27.9941 45.3025 27.9424 45.249C27.8907 45.1955 27.8648 45.1277 27.8648 45.0466V44.958C27.8648 44.8768 27.8907 44.8091 27.9424 44.7556C27.9941 44.7021 28.0841 44.6753 28.2134 44.6753C28.3427 44.6753 28.4327 44.7021 28.4844 44.7556C28.5361 44.8091 28.562 44.8768 28.562 44.958V45.0466C28.562 45.1282 28.5361 45.1955 28.4844 45.249C28.4327 45.3025 28.3422 45.3293 28.2134 45.3293Z" fill="white"/>
<path d="M32.7987 49.1541C32.7987 49.4414 32.679 49.6542 32.4393 49.7926C32.1995 49.9306 31.8401 50 31.3606 50C30.8811 50 30.5688 49.939 30.3679 49.8169C30.1669 49.6948 30.0664 49.5191 30.0664 49.29C30.0664 49.1348 30.1069 49.0144 30.1882 48.9295C30.269 48.8442 30.3837 48.7815 30.5309 48.741V48.6745C30.4496 48.6339 30.387 48.5821 30.3428 48.5193C30.2986 48.4566 30.2766 48.3772 30.2766 48.281C30.2766 48.133 30.3253 48.0222 30.4233 47.9481C30.5209 47.8741 30.6435 47.8189 30.7911 47.7817V47.7596C30.6143 47.6818 30.4767 47.5672 30.3791 47.4158C30.2816 47.264 30.2324 47.0867 30.2324 46.8835C30.2324 46.7393 30.2582 46.6063 30.3099 46.4842C30.3616 46.3621 30.4362 46.2576 30.5338 46.171C30.6314 46.084 30.7485 46.0167 30.8849 45.9686C31.0212 45.9205 31.1726 45.8967 31.3385 45.8967C31.5524 45.8967 31.7405 45.9356 31.9027 46.0134V45.9636C31.9027 45.854 31.9285 45.7625 31.9802 45.6897C32.0319 45.6169 32.1203 45.5806 32.2458 45.5806H32.7712V45.9632H32.1295V46.1572C32.2325 46.2458 32.3121 46.3512 32.3672 46.4733C32.4226 46.5954 32.4501 46.7322 32.4501 46.8839C32.4501 47.0357 32.4234 47.1612 32.3701 47.2833C32.3167 47.4054 32.2421 47.5099 32.1462 47.5965C32.0503 47.6834 31.9331 47.7508 31.7951 47.7989C31.6567 47.8469 31.5049 47.8708 31.3389 47.8708C31.291 47.8708 31.2447 47.8691 31.2005 47.8653C31.1563 47.8616 31.1121 47.8561 31.0679 47.8486C31.0237 47.8561 30.9774 47.8683 30.9295 47.885C30.8815 47.9017 30.8374 47.9243 30.7969 47.9523C30.7565 47.9803 30.7231 48.0129 30.6973 48.0506C30.6714 48.0882 30.6585 48.1309 30.6585 48.1794C30.6585 48.2655 30.701 48.3224 30.7856 48.3504C30.8703 48.3784 30.9812 48.3926 31.1175 48.3926H31.748C32.1166 48.3926 32.3842 48.4616 32.5498 48.6C32.7157 48.7384 32.7987 48.9233 32.7987 49.1558V49.1541ZM32.3838 49.1733C32.3838 49.0587 32.3375 48.9672 32.2454 48.8986C32.1533 48.83 31.9927 48.7961 31.7642 48.7961H30.774C30.5822 48.8739 30.4863 49.0031 30.4863 49.1846C30.4863 49.3105 30.5359 49.4184 30.6355 49.5091C30.7352 49.5998 30.9011 49.645 31.1334 49.645H31.5649C31.823 49.645 32.024 49.6053 32.1678 49.5258C32.3117 49.4464 32.3834 49.3289 32.3834 49.1737L32.3838 49.1733ZM31.3385 47.5258C31.5599 47.5258 31.723 47.474 31.828 47.3707C31.9331 47.2674 31.9856 47.1302 31.9856 46.96V46.7991C31.9856 46.6289 31.9331 46.493 31.828 46.3914C31.723 46.2897 31.5599 46.2387 31.3385 46.2387C31.1171 46.2387 30.9549 46.2897 30.8519 46.3914C30.7485 46.493 30.6973 46.6289 30.6973 46.7991V46.96C30.6973 47.1302 30.749 47.267 30.8519 47.3707C30.9549 47.4744 31.1175 47.5258 31.3385 47.5258Z" fill="white"/>
<path d="M33.6008 48.4412H34.6295V46.3445H33.6008V45.9619H35.0723V48.4416H36.0346V48.8242H33.6008V48.4416V48.4412ZM34.8509 45.3293C34.7216 45.3293 34.6315 45.3025 34.5798 45.249C34.5281 45.1955 34.5023 45.1277 34.5023 45.0466V44.958C34.5023 44.8768 34.5281 44.8091 34.5798 44.7556C34.6315 44.7021 34.7216 44.6753 34.8509 44.6753C34.9801 44.6753 35.0702 44.7021 35.1219 44.7556C35.1736 44.8091 35.1994 44.8768 35.1994 44.958V45.0466C35.1994 45.1282 35.1736 45.1955 35.1219 45.249C35.0702 45.3025 34.9797 45.3293 34.8509 45.3293Z" fill="white"/>
<path d="M38.1307 48.8243C37.9131 48.8243 37.7538 48.7637 37.6525 48.6416C37.5512 48.5199 37.5003 48.3631 37.5003 48.1711V46.3447H36.5488V45.9621H37.2568C37.3527 45.9621 37.4198 45.9428 37.4586 45.9039C37.4974 45.865 37.5166 45.7977 37.5166 45.7015V44.9526H37.9423V45.9621H39.2419V46.3447H37.9423V48.4413H39.2419V48.8239H38.1303L38.1307 48.8243Z" fill="white"/>
<path d="M42.3895 48.8241C42.216 48.8241 42.0926 48.7797 42.0188 48.6911C41.945 48.6024 41.8991 48.4912 41.8804 48.3582H41.8529C41.7903 48.5247 41.6898 48.6551 41.5514 48.7492C41.413 48.8433 41.2278 48.8905 40.9956 48.8905C40.6971 48.8905 40.459 48.8128 40.2822 48.6576C40.1054 48.5025 40.0166 48.2897 40.0166 48.0195C40.0166 47.7494 40.1133 47.5479 40.3068 47.404C40.5003 47.2598 40.813 47.1878 41.2445 47.1878H41.8529V46.9068C41.8529 46.6973 41.7937 46.5401 41.6761 46.4356C41.5581 46.331 41.3905 46.2784 41.1728 46.2784C40.981 46.2784 40.8242 46.3164 40.7025 46.3921C40.5807 46.4678 40.4832 46.5706 40.4094 46.6999L40.1108 46.4778C40.1475 46.4038 40.1976 46.3315 40.2601 46.2608C40.3226 46.1897 40.4002 46.1274 40.4923 46.073C40.5845 46.0187 40.6896 45.9756 40.8076 45.9434C40.9256 45.9116 41.0565 45.8958 41.2003 45.8958C41.536 45.8958 41.8024 45.9811 41.9996 46.1517C42.1968 46.3223 42.2957 46.5594 42.2957 46.8629V48.4419H42.6939V48.8245H42.3895V48.8241ZM41.0732 48.5188C41.1874 48.5188 41.2916 48.505 41.3855 48.4774C41.4797 48.4498 41.5614 48.4126 41.6315 48.3666C41.7015 48.3206 41.7557 48.265 41.7945 48.2002C41.8333 48.1354 41.8524 48.0664 41.8524 47.9924V47.5207H41.2441C40.9785 47.5207 40.785 47.5579 40.6633 47.6315C40.5415 47.7055 40.4807 47.8126 40.4807 47.9531V48.0697C40.4807 48.2177 40.5332 48.3294 40.6383 48.4055C40.7434 48.4812 40.888 48.5192 41.0723 48.5192L41.0732 48.5188Z" fill="white"/>
<path d="M43.4126 48.4412H44.4083V45.1018H43.4126V44.7192H44.8507V48.4412H45.8464V48.8238H43.4126V48.4412Z" fill="white"/>
<path d="M47.9978 48.8907C47.7914 48.8907 47.6059 48.8555 47.442 48.7853C47.2778 48.715 47.1377 48.6143 47.0218 48.483C46.9054 48.3517 46.8162 48.1944 46.7537 48.0113C46.6911 47.8281 46.6594 47.6241 46.6594 47.3983C46.6594 47.1725 46.6915 46.9621 46.7562 46.7769C46.8208 46.5921 46.91 46.434 47.0243 46.3027C47.1385 46.1714 47.2761 46.0706 47.4362 46.0004C47.5967 45.9301 47.7744 45.895 47.9699 45.895C48.1655 45.895 48.336 45.9301 48.4928 46.0004C48.6495 46.0706 48.783 46.1677 48.8939 46.2914C49.0044 46.4152 49.0894 46.5624 49.1482 46.7326C49.207 46.9028 49.2366 47.0897 49.2366 47.2929V47.5037H47.1239V47.6366C47.1239 47.7625 47.1439 47.8787 47.1848 47.9862C47.2252 48.0937 47.2832 48.1861 47.3591 48.2634C47.4345 48.3412 47.5267 48.4014 47.6355 48.4437C47.7443 48.4863 47.8652 48.5076 47.9978 48.5076C48.1896 48.5076 48.3556 48.4633 48.4957 48.3747C48.6358 48.286 48.7425 48.1639 48.8163 48.0084L49.1428 48.2304C49.0581 48.4227 48.9168 48.5808 48.7196 48.7046C48.5224 48.8284 48.2818 48.8902 47.9978 48.8902V48.8907ZM47.9703 46.2613C47.8486 46.2613 47.736 46.2835 47.633 46.3278C47.5296 46.3721 47.4404 46.4332 47.3649 46.511C47.2894 46.5887 47.2302 46.6803 47.1881 46.7857C47.1456 46.8911 47.1243 47.0069 47.1243 47.1323V47.1712H48.7617V47.1102C48.7617 46.9843 48.7425 46.8697 48.7037 46.7665C48.665 46.6632 48.6116 46.5733 48.5432 46.4976C48.4748 46.4219 48.3919 46.3638 48.2943 46.3228C48.1967 46.2822 48.0887 46.2617 47.9707 46.2617L47.9703 46.2613Z" fill="white"/>
<path d="M55.2767 48.3579H55.2546C55.0703 48.7129 54.7772 48.8902 54.3752 48.8902C54.025 48.8902 53.7511 48.7589 53.5538 48.4963C53.3566 48.2337 53.2578 47.8658 53.2578 47.3924C53.2578 46.9191 53.3566 46.5511 53.5538 46.2885C53.7511 46.0259 54.025 45.8946 54.3752 45.8946C54.7772 45.8946 55.0703 46.0719 55.2546 46.4273H55.2767V44.7188H55.7191V48.8233H55.2767V48.3575V48.3579ZM54.5466 48.4967C54.6463 48.4967 54.7401 48.4838 54.8289 48.4579C54.9173 48.4319 54.9948 48.3939 55.0611 48.3441C55.1274 48.2944 55.18 48.2333 55.2187 48.161C55.2575 48.0891 55.2767 48.005 55.2767 47.9084V46.8768C55.2767 46.7807 55.2575 46.6966 55.2187 46.6243C55.18 46.5523 55.1274 46.4913 55.0611 46.4411C54.9948 46.3914 54.9173 46.3533 54.8289 46.3274C54.7405 46.3015 54.6463 46.2885 54.5466 46.2885C54.2885 46.2885 54.0884 46.3671 53.9466 46.5243C53.8044 46.6816 53.7336 46.8894 53.7336 47.1482V47.6362C53.7336 47.895 53.8044 48.1033 53.9466 48.2601C54.0884 48.4173 54.2885 48.4959 54.5466 48.4959V48.4967Z" fill="white"/>
<path d="M58.5789 48.3579H58.5568C58.5272 48.4282 58.4905 48.4959 58.4463 48.5603C58.4021 48.6251 58.3475 48.6816 58.2833 48.7297C58.2187 48.7777 58.1424 48.8166 58.054 48.8463C57.9656 48.876 57.8622 48.8906 57.7442 48.8906C57.4456 48.8906 57.2059 48.7953 57.0249 48.605C56.8444 48.4148 56.7539 48.1455 56.7539 47.798V45.9619H57.1963V47.7202C57.1963 47.9828 57.2534 48.1777 57.3677 48.3056C57.4819 48.4332 57.6499 48.4972 57.8709 48.4972C57.9593 48.4972 58.046 48.4859 58.1307 48.4637C58.2153 48.4415 58.2912 48.4081 58.3575 48.3638C58.4238 48.3194 58.4772 48.263 58.518 48.1944C58.5585 48.1258 58.5789 48.0439 58.5789 47.9477V45.9619H59.0213V48.8242H58.5789V48.3583V48.3579Z" fill="white"/>
<path d="M65.9847 49.1541C65.9847 49.4414 65.8651 49.6542 65.6253 49.7926C65.3856 49.9306 65.0262 50 64.5467 50C64.0672 50 63.7549 49.939 63.5539 49.8169C63.3529 49.6948 63.2524 49.5191 63.2524 49.29C63.2524 49.1348 63.2929 49.0144 63.3742 48.9295C63.4551 48.8442 63.5697 48.7815 63.7169 48.741V48.6745C63.6356 48.6339 63.5731 48.5821 63.5289 48.5193C63.4847 48.4566 63.4626 48.3772 63.4626 48.281C63.4626 48.133 63.5114 48.0222 63.6093 47.9481C63.7069 47.8741 63.8295 47.8189 63.9771 47.7817V47.7596C63.7999 47.6818 63.6627 47.5672 63.5652 47.4158C63.4676 47.264 63.4184 47.0867 63.4184 46.8835C63.4184 46.7393 63.4442 46.6063 63.4959 46.4842C63.5476 46.3621 63.6223 46.2576 63.7198 46.171C63.8174 46.084 63.9346 46.0167 64.0709 45.9686C64.2073 45.9205 64.3586 45.8967 64.5246 45.8967C64.7385 45.8967 64.9265 45.9356 65.0887 46.0134V45.9636C65.0887 45.854 65.1146 45.7625 65.1663 45.6897C65.218 45.6169 65.3063 45.5806 65.4319 45.5806H65.9572V45.9632H65.3155V46.1572C65.4185 46.2458 65.4981 46.3512 65.5532 46.4733C65.6086 46.5954 65.6362 46.7322 65.6362 46.8839C65.6362 47.0357 65.6095 47.1612 65.5561 47.2833C65.5027 47.4054 65.4281 47.5099 65.3322 47.5965C65.2363 47.6834 65.1191 47.7508 64.9811 47.7989C64.8427 47.8469 64.6909 47.8708 64.525 47.8708C64.477 47.8708 64.4307 47.8691 64.3865 47.8653C64.3424 47.8616 64.2982 47.8561 64.254 47.8486C64.2098 47.8561 64.1635 47.8683 64.1155 47.885C64.0676 47.9017 64.0234 47.9243 63.9829 47.9523C63.9425 47.9803 63.9091 48.0129 63.8833 48.0506C63.8574 48.0882 63.8445 48.1309 63.8445 48.1794C63.8445 48.2655 63.887 48.3224 63.9717 48.3504C64.0563 48.3784 64.1672 48.3926 64.3036 48.3926H64.934C65.3026 48.3926 65.5703 48.4616 65.7362 48.6C65.9022 48.7384 65.9851 48.9233 65.9851 49.1558L65.9847 49.1541ZM65.5699 49.1733C65.5699 49.0587 65.5236 48.9672 65.4314 48.8986C65.3393 48.83 65.1788 48.7961 64.9503 48.7961H63.96C63.7682 48.8739 63.6723 49.0031 63.6723 49.1846C63.6723 49.3105 63.7219 49.4184 63.8216 49.5091C63.9212 49.5998 64.0872 49.645 64.3194 49.645H64.751C65.0091 49.645 65.21 49.6053 65.3539 49.5258C65.4977 49.4464 65.5694 49.3289 65.5694 49.1737L65.5699 49.1733ZM64.5246 47.5258C64.746 47.5258 64.909 47.474 65.0141 47.3707C65.1191 47.2674 65.1717 47.1302 65.1717 46.96V46.7991C65.1717 46.6289 65.1191 46.493 65.0141 46.3914C64.909 46.2897 64.746 46.2387 64.5246 46.2387C64.3032 46.2387 64.141 46.2897 64.038 46.3914C63.9346 46.493 63.8833 46.6289 63.8833 46.7991V46.96C63.8833 47.1302 63.935 47.267 64.038 47.3707C64.1414 47.4744 64.3036 47.5258 64.5246 47.5258Z" fill="white"/>
<path d="M66.6264 48.4411H67.4615V46.3444H66.6264V45.9618H67.9039V46.6827H67.9315C67.9902 46.4574 68.102 46.2805 68.2658 46.1529C68.4297 46.0254 68.639 45.9614 68.8938 45.9614H69.292V46.4051H68.7553C68.501 46.4051 68.2954 46.4787 68.1387 46.6263C67.9819 46.7739 67.9035 46.9675 67.9035 47.2071V48.4406H69.0097V48.8232H66.626V48.4406L66.6264 48.4411Z" fill="white"/>
<path d="M71.1783 48.8907C70.9794 48.8907 70.7992 48.8556 70.6391 48.7853C70.4786 48.7151 70.3423 48.6143 70.2297 48.483C70.1171 48.3517 70.0312 48.1945 69.9724 48.0114C69.9132 47.8282 69.884 47.6221 69.884 47.3929C69.884 47.1638 69.9136 46.9622 69.9724 46.7774C70.0312 46.5926 70.1171 46.4345 70.2297 46.3032C70.3423 46.1719 70.4786 46.0711 70.6391 46.0009C70.7997 45.9306 70.9794 45.8955 71.1783 45.8955C71.3771 45.8955 71.5573 45.9306 71.7174 46.0009C71.8779 46.0711 72.0142 46.1719 72.1268 46.3032C72.2394 46.4345 72.3249 46.5926 72.3841 46.7774C72.4429 46.9622 72.4725 47.1675 72.4725 47.3929C72.4725 47.6183 72.4429 47.8282 72.3841 48.0114C72.3249 48.1945 72.2394 48.3517 72.1268 48.483C72.0142 48.6143 71.8779 48.7151 71.7174 48.7853C71.5568 48.8556 71.3771 48.8907 71.1783 48.8907ZM71.1783 48.5081C71.4251 48.5081 71.6244 48.4341 71.7757 48.2861C71.9271 48.1381 72.0026 47.9089 72.0026 47.5982V47.1876C72.0026 46.8769 71.9271 46.6478 71.7757 46.4997C71.6244 46.3517 71.4255 46.2777 71.1783 46.2777C70.931 46.2777 70.7321 46.3517 70.5808 46.4997C70.4294 46.6478 70.3539 46.8769 70.3539 47.1876V47.5982C70.3539 47.9089 70.4294 48.1381 70.5808 48.2861C70.7321 48.4341 70.931 48.5081 71.1783 48.5081Z" fill="white"/>
<path d="M75.1714 48.3579H75.1493C75.1197 48.4282 75.083 48.4959 75.0388 48.5603C74.9946 48.6251 74.94 48.6816 74.8758 48.7297C74.8112 48.7777 74.7349 48.8166 74.6465 48.8463C74.5581 48.876 74.4547 48.8906 74.3367 48.8906C74.0382 48.8906 73.7984 48.7953 73.6175 48.605C73.4369 48.4148 73.3464 48.1455 73.3464 47.798V45.9619H73.7888V47.7202C73.7888 47.9828 73.8459 48.1777 73.9602 48.3056C74.0744 48.4332 74.2425 48.4972 74.4635 48.4972C74.5518 48.4972 74.6386 48.4859 74.7232 48.4637C74.8079 48.4415 74.8837 48.4081 74.95 48.3638C75.0163 48.3194 75.0697 48.263 75.1106 48.1944C75.151 48.1258 75.1714 48.0439 75.1714 47.9477V45.9619H75.6138V48.8242H75.1714V48.3583V48.3579Z" fill="white"/>
<path d="M76.6816 45.9619H77.124V46.4277H77.1461C77.3304 46.0727 77.6235 45.895 78.0255 45.895C78.3757 45.895 78.6497 46.0263 78.8469 46.2889C79.0441 46.5515 79.1429 46.9195 79.1429 47.3928C79.1429 47.8662 79.0441 48.2342 78.8469 48.4968C78.6497 48.7594 78.3757 48.8907 78.0255 48.8907C77.6235 48.8907 77.3304 48.7134 77.1461 48.3583H77.124V49.9335H76.6816V45.9619ZM77.8541 48.4968C78.1122 48.4968 78.3123 48.4181 78.4541 48.2609C78.5959 48.1037 78.6672 47.8959 78.6672 47.637V47.1491C78.6672 46.8902 78.5963 46.6824 78.4541 46.5252C78.3119 46.368 78.1122 46.2893 77.8541 46.2893C77.7545 46.2893 77.6606 46.3023 77.5722 46.3282C77.4839 46.3542 77.4063 46.3922 77.34 46.442C77.2737 46.4917 77.2212 46.5528 77.1824 46.6251C77.1436 46.6975 77.1244 46.7815 77.1244 46.8777V47.9093C77.1244 48.0054 77.1436 48.0895 77.1824 48.1618C77.2212 48.2342 77.2737 48.2948 77.34 48.345C77.4063 48.3947 77.4839 48.4328 77.5722 48.4587C77.6606 48.4846 77.7549 48.4976 77.8541 48.4976V48.4968Z" fill="white"/>
<path d="M81.1839 48.8907C80.9776 48.8907 80.792 48.8555 80.6281 48.7853C80.4639 48.715 80.3238 48.6143 80.2079 48.483C80.0915 48.3517 80.0023 48.1944 79.9398 48.0113C79.8772 47.8281 79.8459 47.6241 79.8459 47.3983C79.8459 47.1725 79.8781 46.9621 79.9427 46.7769C80.0073 46.5921 80.0965 46.434 80.2108 46.3027C80.325 46.1714 80.4626 46.0706 80.6227 46.0004C80.7833 45.9301 80.9609 45.895 81.1564 45.895C81.352 45.895 81.5225 45.9301 81.6793 46.0004C81.8361 46.0706 81.9695 46.1677 82.0804 46.2914C82.1909 46.4152 82.2759 46.5624 82.3347 46.7326C82.3935 46.9028 82.4231 47.0897 82.4231 47.2929V47.5037H80.3104V47.6366C80.3104 47.7625 80.3309 47.8787 80.3713 47.9862C80.4118 48.0937 80.4701 48.1861 80.5456 48.2634C80.6211 48.3412 80.7132 48.4014 80.822 48.4437C80.9309 48.4863 81.0514 48.5076 81.1844 48.5076C81.3762 48.5076 81.5421 48.4633 81.6822 48.3747C81.8223 48.286 81.929 48.1639 82.0028 48.0084L82.3293 48.2304C82.2447 48.4227 82.1033 48.5808 81.9061 48.7046C81.7089 48.8284 81.4683 48.8902 81.1844 48.8902L81.1839 48.8907ZM81.1564 46.2613C81.0347 46.2613 80.9221 46.2835 80.8191 46.3278C80.7157 46.3721 80.6265 46.4332 80.551 46.511C80.4755 46.5887 80.4163 46.6803 80.3738 46.7857C80.3313 46.8911 80.31 47.0069 80.31 47.1323V47.1712H81.9474V47.1102C81.9474 46.9843 81.9282 46.8697 81.8894 46.7665C81.8507 46.6632 81.7973 46.5733 81.7289 46.4976C81.6605 46.4219 81.5776 46.3638 81.48 46.3228C81.3824 46.2822 81.2744 46.2617 81.1564 46.2617V46.2613Z" fill="white"/>
<path d="M87.8209 48.8907C87.6145 48.8907 87.429 48.8555 87.2651 48.7853C87.1008 48.715 86.9607 48.6143 86.8448 48.483C86.7285 48.3517 86.6393 48.1944 86.5767 48.0113C86.5142 47.8281 86.4829 47.6241 86.4829 47.3983C86.4829 47.1725 86.515 46.9621 86.5796 46.7769C86.6443 46.5921 86.7335 46.434 86.8477 46.3027C86.962 46.1714 87.0996 46.0706 87.2597 46.0004C87.4202 45.9301 87.5978 45.895 87.7934 45.895C87.9889 45.895 88.1595 45.9301 88.3162 46.0004C88.473 46.0706 88.6065 46.1677 88.7174 46.2914C88.8279 46.4152 88.9129 46.5624 88.9717 46.7326C89.0305 46.9028 89.0601 47.0897 89.0601 47.2929V47.5037H86.9474V47.6366C86.9474 47.7625 86.9678 47.8787 87.0083 47.9862C87.0487 48.0937 87.1071 48.1861 87.1826 48.2634C87.258 48.3412 87.3502 48.4014 87.459 48.4437C87.5678 48.4863 87.6883 48.5076 87.8213 48.5076C88.0131 48.5076 88.1791 48.4633 88.3192 48.3747C88.4593 48.286 88.566 48.1639 88.6398 48.0084L88.9663 48.2304C88.8816 48.4227 88.7403 48.5808 88.5431 48.7046C88.3459 48.8284 88.1053 48.8902 87.8213 48.8902L87.8209 48.8907ZM87.7934 46.2613C87.6716 46.2613 87.5591 46.2835 87.4561 46.3278C87.3527 46.3721 87.2635 46.4332 87.188 46.511C87.1125 46.5887 87.0533 46.6803 87.0108 46.7857C86.9682 46.8911 86.947 47.0069 86.947 47.1323V47.1712H88.5844V47.1102C88.5844 46.9843 88.5652 46.8697 88.5264 46.7665C88.4876 46.6632 88.4343 46.5733 88.3659 46.4976C88.2975 46.4219 88.2145 46.3638 88.117 46.3228C88.0194 46.2822 87.9114 46.2617 87.7934 46.2617V46.2613Z" fill="white"/>
<path d="M90.2876 47.3706V46.9048H91.8916V47.3706H90.2876Z" fill="white"/>
<path d="M93.4126 48.8243V44.9526H93.8771V48.4195H95.7079V48.8243H93.4126Z" fill="white"/>
<path d="M96.6541 48.4412H97.6827V46.3445H96.6541V45.9619H98.1255V48.4416H99.0878V48.8242H96.6541V48.4416V48.4412ZM97.9041 45.3293C97.7748 45.3293 97.6848 45.3025 97.6331 45.249C97.5814 45.1955 97.5555 45.1277 97.5555 45.0466V44.958C97.5555 44.8768 97.5814 44.8091 97.6331 44.7556C97.6848 44.7021 97.7748 44.6753 97.9041 44.6753C98.0333 44.6753 98.1234 44.7021 98.1751 44.7556C98.2268 44.8091 98.2526 44.8768 98.2526 44.958V45.0466C98.2526 45.1282 98.2268 45.1955 98.1751 45.249C98.1234 45.3025 98.0329 45.3293 97.9041 45.3293Z" fill="white"/>
<path d="M99.9116 44.7192H100.354V46.4278H100.376C100.56 46.0728 100.854 45.8951 101.255 45.8951C101.606 45.8951 101.88 46.0264 102.077 46.289C102.274 46.5516 102.373 46.9196 102.373 47.3929C102.373 47.8662 102.274 48.2342 102.077 48.4968C101.88 48.7594 101.606 48.8907 101.255 48.8907C100.854 48.8907 100.56 48.7134 100.376 48.3584H100.354V48.8242H99.9116V44.7197V44.7192ZM101.084 48.4968C101.342 48.4968 101.542 48.4182 101.684 48.261C101.826 48.1038 101.897 47.8959 101.897 47.6371V47.1491C101.897 46.8903 101.826 46.6825 101.684 46.5252C101.542 46.368 101.342 46.2894 101.084 46.2894C100.984 46.2894 100.891 46.3024 100.802 46.3283C100.714 46.3542 100.636 46.3923 100.57 46.442C100.504 46.4918 100.451 46.5528 100.412 46.6252C100.374 46.6975 100.354 46.7816 100.354 46.8777V47.9093C100.354 48.0055 100.374 48.0895 100.412 48.1619C100.451 48.2342 100.504 48.2949 100.57 48.345C100.636 48.3948 100.714 48.4328 100.802 48.4588C100.891 48.4847 100.985 48.4977 101.084 48.4977V48.4968Z" fill="white"/>
<path d="M104.414 48.8907C104.208 48.8907 104.022 48.8555 103.858 48.7853C103.694 48.715 103.554 48.6143 103.438 48.483C103.322 48.3517 103.232 48.1944 103.17 48.0113C103.107 47.8281 103.076 47.6241 103.076 47.3983C103.076 47.1725 103.108 46.9621 103.173 46.7769C103.237 46.5921 103.327 46.434 103.441 46.3027C103.555 46.1714 103.693 46.0706 103.853 46.0004C104.013 45.9301 104.191 45.895 104.386 45.895C104.582 45.895 104.753 45.9301 104.909 46.0004C105.066 46.0706 105.199 46.1677 105.31 46.2914C105.421 46.4152 105.506 46.5624 105.565 46.7326C105.624 46.9028 105.653 47.0897 105.653 47.2929V47.5037H103.54V47.6366C103.54 47.7625 103.561 47.8787 103.601 47.9862C103.642 48.0937 103.7 48.1861 103.776 48.2634C103.851 48.3412 103.943 48.4014 104.052 48.4437C104.161 48.4863 104.281 48.5076 104.414 48.5076C104.606 48.5076 104.772 48.4633 104.912 48.3747C105.052 48.286 105.159 48.1639 105.233 48.0084L105.559 48.2304C105.475 48.4227 105.333 48.5808 105.136 48.7046C104.939 48.8284 104.698 48.8902 104.414 48.8902L104.414 48.8907ZM104.386 46.2613C104.265 46.2613 104.152 46.2835 104.049 46.3278C103.946 46.3721 103.856 46.4332 103.781 46.511C103.706 46.5887 103.646 46.6803 103.604 46.7857C103.561 46.8911 103.54 47.0069 103.54 47.1323V47.1712H105.177V47.1102C105.177 46.9843 105.158 46.8697 105.119 46.7665C105.081 46.6632 105.027 46.5733 104.959 46.4976C104.891 46.4219 104.808 46.3638 104.71 46.3228C104.612 46.2822 104.504 46.2617 104.386 46.2617V46.2613Z" fill="white"/>
<path d="M106.45 48.4411H107.285V46.3444H106.45V45.9618H107.727V46.6827H107.755C107.813 46.4574 107.925 46.2805 108.089 46.1529C108.253 46.0254 108.462 45.9614 108.717 45.9614H109.115V46.4051H108.579C108.324 46.4051 108.119 46.4787 107.962 46.6263C107.805 46.7739 107.727 46.9675 107.727 47.2071V48.4406H108.833V48.8232H106.449V48.4406L106.45 48.4411Z" fill="white"/>
<path d="M111.14 48.8243C110.922 48.8243 110.763 48.7637 110.662 48.6416C110.56 48.5199 110.509 48.3631 110.509 48.1711V46.3447H109.558V45.9621H110.266C110.362 45.9621 110.429 45.9428 110.468 45.9039C110.506 45.865 110.526 45.7977 110.526 45.7015V44.9526H110.951V45.9621H112.251V46.3447H110.951V48.4413H112.251V48.8239H111.139L111.14 48.8243Z" fill="white"/>
<path d="M115.244 45.9619H115.686L114.27 49.451C114.237 49.5321 114.2 49.6036 114.159 49.6646C114.119 49.7257 114.071 49.7755 114.016 49.8143C113.96 49.8532 113.894 49.8829 113.816 49.903C113.739 49.9231 113.647 49.9335 113.54 49.9335H113.12V49.5509H113.783L114.104 48.769L112.954 45.9623H113.407L113.888 47.1603L114.314 48.2475H114.336L114.762 47.1603L115.243 45.9623L115.244 45.9619Z" fill="white"/>
<path d="M84.6212 0V10.2447H83.7914V0H73.991V20.4894H94.4216V0H84.6212Z" fill="white"/>
<path d="M95.2556 0V20.4894H105.098V10.2447H105.886V20.4894H115.686V0H95.2556ZM105.886 8.36302H105.052V7.52672H105.886V8.36302Z" fill="white"/>
<path d="M73.991 21.3257V41.8151H87.333V31.5733H88.1669V41.8151H101.51V31.5733H102.344V41.8151H115.686V21.3257H73.991Z" fill="white"/>
</g>
<defs>
<clipPath id="clip0_315_7319">
<rect width="115.686" height="50" fill="white"/>
</clipPath>
</defs>
</svg>
